HIERARCHY
ROOT Hips
{
  OFFSET -4.846 30.379 -244.182
  CHANNELS 6 Xposition Yposition Zposition Zrotation Xrotation Yrotation
  JOINT LeftUpLeg
  {
    OFFSET 7.759 -6.140 4.337
    CHANNELS 6 Xposition Yposition Zposition Zrotation Xrotation Yrotation
    JOINT LeftLeg
    {
      OFFSET -0.000 -52.491 0.000
      CHANNELS 6 Xposition Yposition Zposition Zrotation Xrotation Yrotation
      JOINT LeftFoot
      {
        OFFSET -0.000 -41.476 -0.000
        CHANNELS 6 Xposition Yposition Zposition Zrotation Xrotation Yrotation
        End Site
        {
          OFFSET 0.000 -8.419 4.860
        }
      }
    }
  }
  JOINT RightUpLeg
  {
    OFFSET -7.282 -7.026 4.225
    CHANNELS 6 Xposition Yposition Zposition Zrotation Xrotation Yrotation
    JOINT RightLeg
    {
      OFFSET -0.000 -49.853 0.000
      CHANNELS 6 Xposition Yposition Zposition Zrotation Xrotation Yrotation
      JOINT RightFoot
      {
        OFFSET -0.000 -44.412 -0.000
        CHANNELS 6 Xposition Yposition Zposition Zrotation Xrotation Yrotation
        End Site
        {
          OFFSET -0.000 -8.158 4.710
        }
      }
    }
  }
  JOINT Spine
  {
    OFFSET 0.000 5.123 -5.123
    CHANNELS 6 Xposition Yposition Zposition Zrotation Xrotation Yrotation
    JOINT LeftShoulder
    {
      OFFSET -0.000 31.614 0.000
      CHANNELS 6 Xposition Yposition Zposition Zrotation Xrotation Yrotation
      JOINT LeftArm
      {
        OFFSET 18.081 -0.000 -0.000
        CHANNELS 6 Xposition Yposition Zposition Zrotation Xrotation Yrotation
        JOINT LeftForeArm
        {
          OFFSET 24.374 0.000 0.000
          CHANNELS 6 Xposition Yposition Zposition Zrotation Xrotation Yrotation
          JOINT LeftHand
          {
            OFFSET 28.079 -0.000 -0.000
            CHANNELS 6 Xposition Yposition Zposition Zrotation Xrotation Yrotation
            JOINT LeftHandThumb1
            {
            OFFSET 4.970 -0.620 3.390
            CHANNELS 6 Xposition Yposition Zposition Zrotation Xrotation Yrotation
              JOINT LeftHandThumb2
              {
              OFFSET 2.150 -0.000 0.000
              CHANNELS 6 Xposition Yposition Zposition Zrotation Xrotation Yrotation
                JOINT LeftHandThumb3
                {
                OFFSET 2.200 -0.000 0.000
                CHANNELS 6 Xposition Yposition Zposition Zrotation Xrotation Yrotation
                  JOINT LeftHandThumb4
                  {
                  OFFSET 1.700 -0.000 0.000
                  CHANNELS 6 Xposition Yposition Zposition Zrotation Xrotation Yrotation
                  }
                }
              }
            }
            JOINT LeftHandIndex1
            {
            OFFSET 8.730 0.680 2.070
            CHANNELS 6 Xposition Yposition Zposition Zrotation Xrotation Yrotation
              JOINT LeftHandIndex2
              {
              OFFSET 2.670 -0.000 0.000
              CHANNELS 6 Xposition Yposition Zposition Zrotation Xrotation Yrotation
                JOINT LeftHandIndex3
                {
                OFFSET 2.130 -0.000 0.000
                CHANNELS 6 Xposition Yposition Zposition Zrotation Xrotation Yrotation
                  JOINT LeftHandIndex4
                  {
                  OFFSET 1.800 -0.000 0.000
                  CHANNELS 6 Xposition Yposition Zposition Zrotation Xrotation Yrotation
                  }
                }
              }
            }
            JOINT LeftHandMiddle1
            {
            OFFSET 9.220 0.670 0.550
            CHANNELS 6 Xposition Yposition Zposition Zrotation Xrotation Yrotation
              JOINT LeftHandMiddle2
              {
              OFFSET 2.660 -0.000 0.000
              CHANNELS 6 Xposition Yposition Zposition Zrotation Xrotation Yrotation
                JOINT LeftHandMiddle3
                {
                OFFSET 2.280 -0.000 0.000
                CHANNELS 6 Xposition Yposition Zposition Zrotation Xrotation Yrotation
                  JOINT LeftHandMiddle4
                  {
                  OFFSET 1.500 -0.000 0.000
                  CHANNELS 6 Xposition Yposition Zposition Zrotation Xrotation Yrotation
                  }
                }
              }
            }
            JOINT LeftHandRing1
            {
            OFFSET 9.250 0.670 -1.130
            CHANNELS 6 Xposition Yposition Zposition Zrotation Xrotation Yrotation
              JOINT LeftHandRing2
              {
              OFFSET 2.470 -0.000 0.000
              CHANNELS 6 Xposition Yposition Zposition Zrotation Xrotation Yrotation
                JOINT LeftHandRing3
                {
                OFFSET 2.210 -0.000 0.000
                CHANNELS 6 Xposition Yposition Zposition Zrotation Xrotation Yrotation
                  JOINT LeftHandRing4
                  {
                  OFFSET 1.800 -0.000 0.000
                  CHANNELS 6 Xposition Yposition Zposition Zrotation Xrotation Yrotation
                  }
                }
              }
            }
            JOINT LeftHandPinky1
            {
            OFFSET 9.350 0.660 -2.720
            CHANNELS 6 Xposition Yposition Zposition Zrotation Xrotation Yrotation
              JOINT LeftHandPinky2
              {
              OFFSET 1.630 -0.000 0.000
              CHANNELS 6 Xposition Yposition Zposition Zrotation Xrotation Yrotation
                JOINT LeftHandPinky3
                {
                OFFSET 1.710 -0.000 0.000
                CHANNELS 6 Xposition Yposition Zposition Zrotation Xrotation Yrotation
                  JOINT LeftHandPinky4
                  {
                  OFFSET 1.800 -0.000 0.000
                  CHANNELS 6 Xposition Yposition Zposition Zrotation Xrotation Yrotation
                  }
                }
              }
            }
          }
        }
      }
    }
    JOINT RightShoulder
    {
      OFFSET -0.000 31.614 0.000
      CHANNELS 6 Xposition Yposition Zposition Zrotation Xrotation Yrotation
      JOINT RightArm
      {
        OFFSET -19.457 0.000 -0.000
        CHANNELS 6 Xposition Yposition Zposition Zrotation Xrotation Yrotation
        JOINT RightForeArm
        {
          OFFSET -23.895 0.000 0.000
          CHANNELS 6 Xposition Yposition Zposition Zrotation Xrotation Yrotation
          JOINT RightHand
          {
            OFFSET -28.163 0.000 -0.000
            CHANNELS 6 Xposition Yposition Zposition Zrotation Xrotation Yrotation
            JOINT RightHandThumb1
            {
            OFFSET -4.970 -0.620 3.390
            CHANNELS 6 Xposition Yposition Zposition Zrotation Xrotation Yrotation
              JOINT RightHandThumb2
              {
              OFFSET -2.150 0.000 0.000
              CHANNELS 6 Xposition Yposition Zposition Zrotation Xrotation Yrotation
                JOINT RightHandThumb3
                {
                OFFSET -2.200 0.000 0.000
                CHANNELS 6 Xposition Yposition Zposition Zrotation Xrotation Yrotation
                  JOINT RightHandThumb4
                  {
                  OFFSET -1.700 0.000 0.000
                  CHANNELS 6 Xposition Yposition Zposition Zrotation Xrotation Yrotation
                  }
                }
              }
            }
            JOINT RightHandIndex1
            {
            OFFSET -8.730 0.680 2.070
            CHANNELS 6 Xposition Yposition Zposition Zrotation Xrotation Yrotation
              JOINT RightHandIndex2
              {
              OFFSET -2.670 0.000 0.000
              CHANNELS 6 Xposition Yposition Zposition Zrotation Xrotation Yrotation
                JOINT RightHandIndex3
                {
                OFFSET -2.130 0.000 0.000
                CHANNELS 6 Xposition Yposition Zposition Zrotation Xrotation Yrotation
                  JOINT RightHandIndex4
                  {
                  OFFSET -1.800 0.000 0.000
                  CHANNELS 6 Xposition Yposition Zposition Zrotation Xrotation Yrotation
                  }
                }
              }
            }
            JOINT RightHandMiddle1
            {
            OFFSET -9.220 0.670 0.550
            CHANNELS 6 Xposition Yposition Zposition Zrotation Xrotation Yrotation
              JOINT RightHandMiddle2
              {
              OFFSET -2.660 0.000 0.000
              CHANNELS 6 Xposition Yposition Zposition Zrotation Xrotation Yrotation
                JOINT RightHandMiddle3
                {
                OFFSET -2.280 0.000 0.000
                CHANNELS 6 Xposition Yposition Zposition Zrotation Xrotation Yrotation
                  JOINT RightHandMiddle4
                  {
                  OFFSET -1.500 0.000 0.000
                  CHANNELS 6 Xposition Yposition Zposition Zrotation Xrotation Yrotation
                  }
                }
              }
            }
            JOINT RightHandRing1
            {
            OFFSET -9.250 0.670 -1.130
            CHANNELS 6 Xposition Yposition Zposition Zrotation Xrotation Yrotation
              JOINT RightHandRing2
              {
              OFFSET -2.470 0.000 0.000
              CHANNELS 6 Xposition Yposition Zposition Zrotation Xrotation Yrotation
                JOINT RightHandRing3
                {
                OFFSET -2.210 0.000 0.000
                CHANNELS 6 Xposition Yposition Zposition Zrotation Xrotation Yrotation
                  JOINT RightHandRing4
                  {
                  OFFSET -1.800 0.000 0.000
                  CHANNELS 6 Xposition Yposition Zposition Zrotation Xrotation Yrotation
                  }
                }
              }
            }
            JOINT RightHandPinky1
            {
            OFFSET -9.350 0.660 -2.720
            CHANNELS 6 Xposition Yposition Zposition Zrotation Xrotation Yrotation
              JOINT RightHandPinky2
              {
              OFFSET -1.630 0.000 0.000
              CHANNELS 6 Xposition Yposition Zposition Zrotation Xrotation Yrotation
                JOINT RightHandPinky3
                {
                OFFSET -1.710 0.000 0.000
                CHANNELS 6 Xposition Yposition Zposition Zrotation Xrotation Yrotation
                  JOINT RightHandPinky4
                  {
                  OFFSET -1.800 0.000 0.000
                  CHANNELS 6 Xposition Yposition Zposition Zrotation Xrotation Yrotation
                  }
                }
              }
            }
          }
        }
      }
    }
    JOINT Neck
    {
      OFFSET -0.000 31.614 0.000
      CHANNELS 6 Xposition Yposition Zposition Zrotation Xrotation Yrotation
      JOINT Head
      {
        OFFSET -0.000 21.639 -0.000
        CHANNELS 6 Xposition Yposition Zposition Zrotation Xrotation Yrotation
        End Site
        {
          OFFSET -0.000 0.087 -0.000
        }
      }
    }
  }
}
MOTION
Frames:	5
Frame Time:	0.0333333
9.28385 31.6549 -246.185 7.96342 14.2606 -9.02672 7.59792 -7.39337 2.95742 10.5639 -21.0831 -1.0028 8.9407e-06 -52.9074 0 -6.93522 20.4286 9.11073e-07 8.9407e-06 -44.0575 4.76837e-05 6.05777 -9.0519 4.81975 -7.56277 -7.5051 2.04611 -6.79948 -15.4743 -3.27303 2.98023e-06 -50.5113 -2.38419e-05 -1.56248 14.6962 8.8265e-07 2.98023e-06 -42.1259 2.38419e-05 9.07733 -16.8971 7.10112 -5.96046e-06 5.63161 -5.63166 -0.294981 -11.0945 -1.6864 -8.9407e-06 31.6137 0 -24.3002 1.15259e-05 -3.13056 17.8569 2.38419e-05 4.76837e-05 -46.4721 38.5922 0.754791 25.1786 -2.38419e-05 1.19209e-05 -2.95959e-05 -9.81571e-06 -116.1 29.6985 -1.19209e-05 0 27.517 -0.111174 -8.92421 0.0062 0.0497 0.0339 0 0 0 0 0.0215 0 0 0 0 0 0.022 0 0 0 0 0 0.017 0 0 0 0 -0.0068 0.0873 0.0207 0 0 0 0 0.0267 0 0 0 0 0 0.0213 0 0 0 0 0 0.018 0 0 0 0 -0.0067 0.0922 0.0055 0 0 0 0 0.0266 0 0 0 0 0 0.0228 0 0 0 0 0 0.015 0 0 0 0 -0.0067 0.0925 -0.0113 0 0 0 0 0.0247 0 0 0 0 0 0.0221 0 0 0 0 0 0.018 0 0 0 0 -0.0066 0.0935 -0.0272 0 0 0 0 0.0163 0 0 0 0 0 0.0171 0 0 0 0 0 0.018 0 0 0 0 -8.9407e-06 31.6137 0 18.3978 1.13392e-06 2.91051 -19.2056 5.96046e-06 2.38419e-05 53.4304 41.671 9.89443 -23.6211 1.19209e-05 -2.38419e-05 -5.53765e-05 5.67955e-06 104.747 -29.8945 1.19209e-05 -2.38419e-05 -4.29979 -0.441048 9.4574 -0.0062 0.0497 0.0339 0 0 0 0 0.0215 0 0 0 0 0 0.022 0 0 0 0 0 0.017 0 0 0 0 0.0068 0.0873 0.0207 0 0 0 0 0.0267 0 0 0 0 0 0.0213 0 0 0 0 0 0.018 0 0 0 0 0.0067 0.0922 0.0055 0 0 0 0 0.0266 0 0 0 0 0 0.0228 0 0 0 0 0 0.015 0 0 0 0 0.0067 0.0925 -0.0113 0 0 0 0 0.0247 0 0 0 0 0 0.0221 0 0 0 0 0 0.018 0 0 0 0 0.0066 0.0935 -0.0272 0 0 0 0 0.0163 0 0 0 0 0 0.0171 0 0 0 0 0 0.018 0 0 0 0 -8.9407e-06 31.6137 0 3.64941 5.26599 -0.335392 5.96046e-06 22.3122 -4.76837e-05 7.68396e-06 -1.36604e-05 8.53774e-07 
9.28385 31.6549 -246.185 7.96342 14.2606 -9.02672 7.59792 -7.39337 2.95742 10.5639 -21.0831 -1.0028 8.9407e-06 -52.9074 0 -6.93522 20.4286 9.11073e-07 8.9407e-06 -44.0575 4.76837e-05 6.05777 -9.0519 4.81975 -7.56277 -7.5051 2.04611 -6.79948 -15.4743 -3.27303 2.98023e-06 -50.5113 -2.38419e-05 -1.56248 14.6962 8.8265e-07 2.98023e-06 -42.1259 2.38419e-05 9.07733 -16.8971 7.10112 -5.96046e-06 5.63161 -5.63166 -0.294981 -11.0945 -1.6864 -8.9407e-06 31.6137 0 -24.3002 1.15259e-05 -3.13056 17.8569 2.38419e-05 4.76837e-05 -46.4721 38.5922 0.754791 25.1786 -2.38419e-05 1.19209e-05 -2.95959e-05 -9.81571e-06 -116.1 29.6985 -1.19209e-05 0 27.517 -0.111174 -8.92421 0.0062 0.0497 0.0339 0 0 0 0 0.0215 0 0 0 0 0 0.022 0 0 0 0 0 0.017 0 0 0 0 -0.0068 0.0873 0.0207 0 0 0 0 0.0267 0 0 0 0 0 0.0213 0 0 0 0 0 0.018 0 0 0 0 -0.0067 0.0922 0.0055 0 0 0 0 0.0266 0 0 0 0 0 0.0228 0 0 0 0 0 0.015 0 0 0 0 -0.0067 0.0925 -0.0113 0 0 0 0 0.0247 0 0 0 0 0 0.0221 0 0 0 0 0 0.018 0 0 0 0 -0.0066 0.0935 -0.0272 0 0 0 0 0.0163 0 0 0 0 0 0.0171 0 0 0 0 0 0.018 0 0 0 0 -8.9407e-06 31.6137 0 18.3978 1.13392e-06 2.91051 -19.2056 5.96046e-06 2.38419e-05 53.4304 41.671 9.89443 -23.6211 1.19209e-05 -2.38419e-05 -5.53765e-05 5.67955e-06 104.747 -29.8945 1.19209e-05 -2.38419e-05 -4.29979 -0.441048 9.4574 -0.0062 0.0497 0.0339 0 0 0 0 0.0215 0 0 0 0 0 0.022 0 0 0 0 0 0.017 0 0 0 0 0.0068 0.0873 0.0207 0 0 0 0 0.0267 0 0 0 0 0 0.0213 0 0 0 0 0 0.018 0 0 0 0 0.0067 0.0922 0.0055 0 0 0 0 0.0266 0 0 0 0 0 0.0228 0 0 0 0 0 0.015 0 0 0 0 0.0067 0.0925 -0.0113 0 0 0 0 0.0247 0 0 0 0 0 0.0221 0 0 0 0 0 0.018 0 0 0 0 0.0066 0.0935 -0.0272 0 0 0 0 0.0163 0 0 0 0 0 0.0171 0 0 0 0 0 0.018 0 0 0 0 -8.9407e-06 31.6137 0 3.64941 5.26599 -0.335392 5.96046e-06 22.3122 -4.76837e-05 7.68396e-06 -1.36604e-05 8.53774e-07 
12.2321 31.1444 -246.31 7.87974 15.0211 -9.37325 7.67872 -7.3466 3.04329 12.0604 -21.3278 -1.4849 5.96046e-06 -52.6465 4.76837e-05 -4.62943 18.5187 1.80079e-06 2.98023e-06 -43.8765 0 4.94519 -9.1287 3.98333 -7.53212 -7.51277 2.14293 -7.67965 -16.8668 -3.24568 5.96046e-06 -50.3711 4.76837e-05 -1.57916 15.9348 1.77578e-06 0 -41.9864 -2.38419e-05 8.98334 -17.2297 7.21293 4.47035e-06 5.60006 -5.60012 0.0628667 -11.8566 -1.44678 -5.96046e-06 31.6137 4.76837e-05 -24.2143 1.53679e-05 -2.75804 18.2241 2.98023e-06 -2.38419e-05 -48.004 38.7801 0.910449 25.027 0 -1.19209e-05 -1.70402e-05 -1.52229e-05 -115.036 29.852 -1.19209e-05 -1.19209e-05 23.0136 -0.00113758 -7.76532 0.0062 0.0497 0.0339 0 0 0 0 0.0215 0 0 0 0 0 0.022 0 0 0 0 0 0.017 0 0 0 0 -0.0068 0.0873 0.0207 0 0 0 0 0.0267 0 0 0 0 0 0.0213 0 0 0 0 0 0.018 0 0 0 0 -0.0067 0.0922 0.0055 0 0 0 0 0.0266 0 0 0 0 0 0.0228 0 0 0 0 0 0.015 0 0 0 0 -0.0067 0.0925 -0.0113 0 0 0 0 0.0247 0 0 0 0 0 0.0221 0 0 0 0 0 0.018 0 0 0 0 -0.0066 0.0935 -0.0272 0 0 0 0 0.0163 0 0 0 0 0 0.0171 0 0 0 0 0 0.018 0 0 0 0 -5.96046e-06 31.6137 4.76837e-05 18.5252 -1.73423e-07 2.62635 -19.1371 1.78814e-05 4.76837e-05 55.2209 38.9827 8.73917 -23.3645 -7.15256e-05 -2.38419e-05 -1.39421e-05 2.18992e-06 104.663 -29.0327 -1.19209e-05 1.19209e-05 5.05151 0.147342 3.42993 -0.0062 0.0497 0.0339 0 0 0 0 0.0215 0 0 0 0 0 0.022 0 0 0 0 0 0.017 0 0 0 0 0.0068 0.0873 0.0207 0 0 0 0 0.0267 0 0 0 0 0 0.0213 0 0 0 0 0 0.018 0 0 0 0 0.0067 0.0922 0.0055 0 0 0 0 0.0266 0 0 0 0 0 0.0228 0 0 0 0 0 0.015 0 0 0 0 0.0067 0.0925 -0.0113 0 0 0 0 0.0247 0 0 0 0 0 0.0221 0 0 0 0 0 0.018 0 0 0 0 0.0066 0.0935 -0.0272 0 0 0 0 0.0163 0 0 0 0 0 0.0171 0 0 0 0 0 0.018 0 0 0 0 -5.96046e-06 31.6137 4.76837e-05 3.83809 5.66225 -0.379243 -2.98023e-06 22.5718 -4.76837e-05 1.26999e-05 -1.02453e-05 0 
14.4792 30.8632 -246.387 7.81384 15.6077 -10.11 7.70807 -7.31026 3.06702 12.8589 -21.3369 -1.07452 2.98023e-06 -52.5095 0 -4.10262 16.9933 -8.92752e-07 5.96046e-06 -43.5058 4.76837e-05 3.84357 -8.95477 3.1949 -7.49896 -7.52533 2.24435 -8.16141 -17.9778 -2.85347 -1.19209e-05 -50.3849 -2.38419e-05 -2.10016 16.6758 8.91257e-07 0 -41.8782 0 9.05139 -17.4628 7.38269 8.9407e-06 5.57108 -5.57108 0.369563 -12.3713 -1.26841 -2.98023e-06 31.6137 -4.76837e-05 -24.3436 1.45141e-05 -2.40824 18.2814 -1.19209e-05 9.53674e-05 -48.003 39.1805 1.03096 25.0026 0 0 1.65069e-05 -3.62479e-06 -114.77 30.0328 0 0 18.9147 0.00194833 -7.35552 0.0062 0.0497 0.0339 0 0 0 0 0.0215 0 0 0 0 0 0.022 0 0 0 0 0 0.017 0 0 0 0 -0.0068 0.0873 0.0207 0 0 0 0 0.0267 0 0 0 0 0 0.0213 0 0 0 0 0 0.018 0 0 0 0 -0.0067 0.0922 0.0055 0 0 0 0 0.0266 0 0 0 0 0 0.0228 0 0 0 0 0 0.015 0 0 0 0 -0.0067 0.0925 -0.0113 0 0 0 0 0.0247 0 0 0 0 0 0.0221 0 0 0 0 0 0.018 0 0 0 0 -0.0066 0.0935 -0.0272 0 0 0 0 0.0163 0 0 0 0 0 0.0171 0 0 0 0 0 0.018 0 0 0 0 -2.98023e-06 31.6137 -4.76837e-05 18.5143 -2.93485e-06 2.31372 -19.0277 -1.19209e-05 2.38419e-05 55.4528 37.1879 8.62962 -23.2437 1.19209e-05 -4.76837e-05 1.24672e-05 9.18793e-06 104.798 -28.4212 0 0 8.89572 0.153685 1.63014 -0.0062 0.0497 0.0339 0 0 0 0 0.0215 0 0 0 0 0 0.022 0 0 0 0 0 0.017 0 0 0 0 0.0068 0.0873 0.0207 0 0 0 0 0.0267 0 0 0 0 0 0.0213 0 0 0 0 0 0.018 0 0 0 0 0.0067 0.0922 0.0055 0 0 0 0 0.0266 0 0 0 0 0 0.0228 0 0 0 0 0 0.015 0 0 0 0 0.0067 0.0925 -0.0113 0 0 0 0 0.0247 0 0 0 0 0 0.0221 0 0 0 0 0 0.018 0 0 0 0 0.0066 0.0935 -0.0272 0 0 0 0 0.0163 0 0 0 0 0 0.0171 0 0 0 0 0 0.018 0 0 0 0 -2.98023e-06 31.6137 -4.76837e-05 3.38614 5.9693 -0.352548 0 22.6151 -2.38419e-05 7.79069e-06 -8.53774e-06 2.56132e-06 
16.9261 30.7246 -246.453 8.14819 16.354 -10.9315 7.70668 -7.30431 3.15499 12.7007 -21.6689 -1.09832 -1.49012e-05 -52.3929 2.38419e-05 -3.80632 15.6306 -1.24118e-05 -1.49012e-05 -43.0836 -7.15256e-05 2.83786 -8.59239 2.46315 -7.39217 -7.53905 2.2862 -9.02693 -19.1532 -2.95241 0 -50.5854 0 -3.14517 16.8606 8.92123e-07 -1.19209e-05 -41.6538 0 9.23446 -17.6324 7.62831 -2.98023e-06 5.52886 -5.52893 0.698485 -12.9773 -1.29815 -5.96046e-06 31.6137 2.38419e-05 -24.7208 1.19528e-05 -1.69563 18.4 -1.19209e-05 -2.38419e-05 -47.5869 39.921 0.479148 25.1123 0 -1.19209e-05 -1.65227e-05 3.59025e-06 -114.519 30.2156 3.57628e-05 1.19209e-05 15.1722 -0.0273122 -7.28469 0.0062 0.0497 0.0339 0 0 0 0 0.0215 0 0 0 0 0 0.022 0 0 0 0 0 0.017 0 0 0 0 -0.0068 0.0873 0.0207 0 0 0 0 0.0267 0 0 0 0 0 0.0213 0 0 0 0 0 0.018 0 0 0 0 -0.0067 0.0922 0.0055 0 0 0 0 0.0266 0 0 0 0 0 0.0228 0 0 0 0 0 0.015 0 0 0 0 -0.0067 0.0925 -0.0113 0 0 0 0 0.0247 0 0 0 0 0 0.0221 0 0 0 0 0 0.018 0 0 0 0 -0.0066 0.0935 -0.0272 0 0 0 0 0.0163 0 0 0 0 0 0.0171 0 0 0 0 0 0.018 0 0 0 0 -5.96046e-06 31.6137 2.38419e-05 18.083 -4.05542e-06 1.64878 -18.9226 5.96046e-06 -4.76837e-05 56.3841 36.6991 9.13404 -23.1079 1.19209e-05 4.76837e-05 -4.12396e-05 2.09886e-06 104.04 -28.0222 -1.19209e-05 -1.19209e-05 11.2917 0.123796 0.874471 -0.0062 0.0497 0.0339 0 0 0 0 0.0215 0 0 0 0 0 0.022 0 0 0 0 0 0.017 0 0 0 0 0.0068 0.0873 0.0207 0 0 0 0 0.0267 0 0 0 0 0 0.0213 0 0 0 0 0 0.018 0 0 0 0 0.0067 0.0922 0.0055 0 0 0 0 0.0266 0 0 0 0 0 0.0228 0 0 0 0 0 0.015 0 0 0 0 0.0067 0.0925 -0.0113 0 0 0 0 0.0247 0 0 0 0 0 0.0221 0 0 0 0 0 0.018 0 0 0 0 0.0066 0.0935 -0.0272 0 0 0 0 0.0163 0 0 0 0 0 0.0171 0 0 0 0 0 0.018 0 0 0 0 -5.96046e-06 31.6137 2.38419e-05 3.49399 6.0642 -0.369564 8.9407e-06 22.6467 0 1.00318e-05 -1.02453e-05 2.56132e-06 
